<svg width="24" height="24" viewBox="0 0 24 24" fill="none" xmlns="http://www.w3.org/2000/svg">
<mask id="mask0_406_4009" style="mask-type:luminance" maskUnits="userSpaceOnUse" x="2" y="2" width="20" height="20">
<path d="M4.5 3H19.5C20.3284 3 21 3.67157 21 4.5V19.5C21 20.3284 20.3284 21 19.5 21H4.5C3.67157 21 3 20.3284 3 19.5V4.5C3 3.67157 3.67157 3 4.5 3Z" fill="white" stroke="white" stroke-width="2" stroke-linejoin="round"/>
<path d="M12.5632 9.18922L10.1444 6.77047C9.89039 6.51766 9.54658 6.37573 9.18818 6.37573C8.82978 6.37573 8.48597 6.51766 8.23193 6.77047L6.76943 8.23297C6.51662 8.48701 6.37469 8.83082 6.37469 9.18922C6.37469 9.54762 6.51662 9.89143 6.76943 10.1455L9.18818 12.5642M9.75079 8.62669L10.8758 7.50169M15.3758 14.2517L16.5008 13.1267M14.8133 11.4392L17.232 13.8579C17.7608 14.3867 17.7608 15.2417 17.232 15.7704L15.7695 17.2329C15.2408 17.7617 14.3858 17.7617 13.857 17.2329L11.4383 14.8142M13.6883 8.06419L15.9383 10.3142M17.1611 9.08338C17.4585 8.78606 17.6256 8.38277 17.6257 7.96224C17.6257 7.54171 17.4587 7.13838 17.1614 6.84098C16.8641 6.54358 16.4608 6.37647 16.0403 6.37642C15.6197 6.37637 15.2164 6.54337 14.919 6.8407L7.41188 14.3495C7.28128 14.4797 7.1847 14.6401 7.13063 14.8164L6.38757 17.2644C6.37303 17.313 6.37193 17.3647 6.38439 17.4139C6.39685 17.4631 6.4224 17.5081 6.45833 17.5439C6.49426 17.5798 6.53923 17.6053 6.58847 17.6177C6.63771 17.6301 6.68938 17.6289 6.73801 17.6143L9.18657 16.8718C9.36273 16.8182 9.52304 16.7222 9.65344 16.5922L17.1611 9.08338Z" stroke="#09090B" stroke-linecap="round" stroke-linejoin="round"/>
</mask>
<g mask="url(#mask0_406_4009)">
<path d="M24 0H0V24H24V0Z" fill="#D68F00"/>
</g>
</svg>
