<svg width="24" height="24" viewBox="0 0 24 24" fill="none" xmlns="http://www.w3.org/2000/svg">
<path d="M5.64573 11.208L12.0097 17.572L18.3737 11.208C18.9364 10.6454 19.2525 9.88227 19.2525 9.08655C19.2525 8.29083 18.9364 7.52771 18.3737 6.96505C18.0951 6.68645 17.7644 6.46545 17.4004 6.31468C17.0364 6.1639 16.6462 6.08629 16.2522 6.08629C15.4565 6.08629 14.6934 6.40239 14.1307 6.96505L12.0097 9.08605L9.88873 6.96605C9.32464 6.41094 8.56405 6.10122 7.77264 6.10435C6.98123 6.10748 6.22311 6.4232 5.66343 6.98275C5.10375 7.5423 4.78784 8.30035 4.78453 9.09176C4.78121 9.88317 5.09076 10.6438 5.64573 11.208ZM11.3027 5.55005L12.0097 6.25705L12.7167 5.55005C13.1803 5.08242 13.7316 4.71095 14.3391 4.45698C14.9466 4.203 15.5983 4.07152 16.2568 4.07008C16.9152 4.06863 17.5675 4.19726 18.1761 4.44857C18.7847 4.69989 19.3377 5.06894 19.8032 5.53453C20.2688 6.00013 20.6379 6.5531 20.8892 7.16171C21.1405 7.77031 21.2691 8.42256 21.2677 9.08101C21.2663 9.73946 21.1348 10.3911 20.8808 10.9986C20.6268 11.6061 20.2554 12.1575 19.7877 12.621L12.7177 19.692C12.6249 19.785 12.5146 19.8588 12.3932 19.9091C12.2718 19.9594 12.1416 19.9853 12.0102 19.9853C11.8788 19.9853 11.7487 19.9594 11.6273 19.9091C11.5059 19.8588 11.3956 19.785 11.3027 19.692L4.23173 12.622C3.75774 12.16 3.38022 11.6084 3.12106 10.9993C2.8619 10.3902 2.72627 9.73571 2.72203 9.07378C2.71779 8.41186 2.84502 7.75567 3.09635 7.1433C3.34768 6.53093 3.71811 5.97456 4.18614 5.50646C4.65417 5.03837 5.21049 4.66786 5.82282 4.41645C6.43516 4.16503 7.09132 4.0377 7.75325 4.04185C8.41518 4.04599 9.0697 4.18153 9.67883 4.44061C10.288 4.69968 10.8396 5.07712 11.3017 5.55105L11.3027 5.55005Z" fill="#7C7C7C"/>
</svg>
