<svg width="24" height="24" viewBox="0 0 24 24" fill="none" xmlns="http://www.w3.org/2000/svg">
<path d="M12 10C10.9 10 9.95833 9.60833 9.175 8.825C8.39167 8.04167 8 7.1 8 6C8 4.9 8.39167 3.95833 9.175 3.175C9.95833 2.39167 10.9 2 12 2C13.1 2 14.0417 2.39167 14.825 3.175C15.6083 3.95833 16 4.9 16 6C16 7.1 15.6083 8.04167 14.825 8.825C14.0417 9.60833 13.1 10 12 10ZM12 8C12.55 8 13.021 7.804 13.413 7.412C13.8043 7.02067 14 6.55 14 6C14 5.45 13.8043 4.97933 13.413 4.588C13.021 4.196 12.55 4 12 4C11.45 4 10.9793 4.196 10.588 4.588C10.196 4.97933 10 5.45 10 6C10 6.55 10.196 7.02067 10.588 7.412C10.9793 7.804 11.45 8 12 8ZM4 22V15.225C4 14.6583 4.14167 14.1373 4.425 13.662C4.70833 13.1873 5.1 12.8167 5.6 12.55C6.45 12.1167 7.41267 11.75 8.488 11.45C9.56267 11.15 10.7333 11 12 11C13.2667 11 14.4373 11.15 15.512 11.45C16.5873 11.75 17.55 12.1167 18.4 12.55C18.9 12.8167 19.2917 13.1873 19.575 13.662C19.8583 14.1373 20 14.6583 20 15.225V20C20 20.55 19.8043 21.021 19.413 21.413C19.021 21.8043 18.55 22 18 22H9.75C8.98333 22 8.33333 21.7333 7.8 21.2C7.26667 20.6667 7 20.0167 7 19.25C7 18.4833 7.26667 17.8333 7.8 17.3C8.33333 16.7667 8.98333 16.5 9.75 16.5H12.575L14.125 13.2C13.7917 13.1333 13.45 13.0833 13.1 13.05C12.75 13.0167 12.3833 13 12 13C10.8 13 9.73333 13.146 8.8 13.438C7.86667 13.7293 7.10833 14.0333 6.525 14.35C6.35833 14.4333 6.22933 14.554 6.138 14.712C6.046 14.8707 6 15.0417 6 15.225V22H4ZM9.75 20H10.95L11.65 18.5H9.75C9.55 18.5 9.375 18.575 9.225 18.725C9.075 18.875 9 19.05 9 19.25C9 19.45 9.075 19.625 9.225 19.775C9.375 19.925 9.55 20 9.75 20ZM13.15 20H18V15.225C18 15.0417 17.9543 14.8707 17.863 14.712C17.771 14.554 17.65 14.4333 17.5 14.35C17.3 14.25 17.0833 14.1457 16.85 14.037C16.6167 13.929 16.3667 13.825 16.1 13.725L13.15 20Z" fill="#7C7C7C"/>
</svg>
