<svg width="24" height="24" viewBox="0 0 24 24" fill="none" xmlns="http://www.w3.org/2000/svg">
<path d="M3.95 13.5C3.75 13.5 3.60433 13.4126 3.513 13.238C3.421 13.0626 3.43333 12.8916 3.55 12.725L10.1 3.29995C10.2333 3.09995 10.4167 3.03728 10.65 3.11195C10.8833 3.18728 11 3.34995 11 3.59995V13C11 13.1333 10.95 13.25 10.85 13.35C10.75 13.45 10.6333 13.5 10.5 13.5H3.95ZM6.825 11.5H9V8.37495L6.825 11.5ZM12.75 12.8C12.9333 12.1833 13.104 11.3916 13.262 10.425C13.4207 9.45829 13.5 8.48328 13.5 7.49995C13.5 6.54995 13.425 5.56662 13.275 4.54995C13.125 3.53328 12.9583 2.66662 12.775 1.94995C12.6917 1.66662 12.7167 1.46662 12.85 1.34995C12.9833 1.23328 13.175 1.23328 13.425 1.34995C14.3417 1.76662 15.2417 2.37062 16.125 3.16195C17.0083 3.95395 17.8 4.87062 18.5 5.91195C19.2 6.95395 19.7793 8.07895 20.238 9.28695C20.696 10.4956 20.95 11.7333 21 13C21 13.1333 20.95 13.25 20.85 13.35C20.75 13.45 20.6333 13.5 20.5 13.5H13.25C13.05 13.5 12.9 13.4333 12.8 13.3C12.7 13.1666 12.6833 13 12.75 12.8ZM15.1 11.5H18.8C18.5167 10.2166 18.0543 9.04162 17.413 7.97495C16.771 6.90828 16.0917 5.99995 15.375 5.24995C15.4083 5.59995 15.4377 5.96228 15.463 6.33695C15.4877 6.71228 15.5 7.09995 15.5 7.49995C15.5 8.28328 15.4623 9.00829 15.387 9.67495C15.3123 10.3416 15.2167 10.95 15.1 11.5ZM11.35 18.125C11.0167 18.3916 10.65 18.6039 10.25 18.7619C9.85 18.9206 9.43333 19 9 19C8.56667 19 8.15 18.9206 7.75 18.7619C7.35 18.6039 6.98333 18.3916 6.65 18.125C6.45 17.975 6.23333 17.9 6 17.9C5.76667 17.9 5.55 17.975 5.35 18.125C5.2 18.2583 5.03767 18.3706 4.863 18.462C4.68767 18.5539 4.50833 18.6416 4.325 18.725C3.925 18.4416 3.571 18.104 3.263 17.712C2.95433 17.3206 2.69167 16.8916 2.475 16.425C2.30833 16.0583 2.32933 15.7293 2.538 15.438C2.746 15.146 3.06667 15 3.5 15H20.5C20.9333 15 21.2543 15.146 21.463 15.438C21.671 15.7293 21.6917 16.0583 21.525 16.425C21.3083 16.8916 21.046 17.3206 20.738 17.712C20.4293 18.104 20.075 18.4416 19.675 18.725C19.4917 18.6416 19.3127 18.5539 19.138 18.462C18.9627 18.3706 18.8 18.2583 18.65 18.125C18.45 17.975 18.2333 17.9 18 17.9C17.7667 17.9 17.55 17.975 17.35 18.125C17.0167 18.3916 16.65 18.6039 16.25 18.7619C15.85 18.9206 15.4333 19 15 19C14.5667 19 14.15 18.9206 13.75 18.7619C13.35 18.6039 12.9833 18.3916 12.65 18.125C12.45 17.975 12.2333 17.9 12 17.9C11.7667 17.9 11.55 17.975 11.35 18.125ZM3 23C3.51667 23 4.025 22.9373 4.525 22.812C5.025 22.6873 5.51667 22.5 6 22.25C6.48333 22.5 6.975 22.6873 7.475 22.812C7.975 22.9373 8.48333 23 9 23C9.51667 23 10.025 22.9373 10.525 22.812C11.025 22.6873 11.5167 22.5 12 22.25C12.4833 22.5 12.975 22.6873 13.475 22.812C13.975 22.9373 14.4833 23 15 23C15.5167 23 16.025 22.9373 16.525 22.812C17.025 22.6873 17.5167 22.5 18 22.25C18.4833 22.5 18.975 22.6873 19.475 22.812C19.975 22.9373 20.4833 23 21 23C21.2833 23 21.5207 22.9039 21.712 22.712C21.904 22.5206 22 22.2833 22 22C22 21.7166 21.904 21.4793 21.712 21.288C21.5207 21.096 21.2833 21 21 21C20.5667 21 20.1373 20.9456 19.712 20.837C19.2873 20.729 18.8833 20.5583 18.5 20.325C18.3667 20.2416 18.2 20.2 18 20.2C17.8 20.2 17.6333 20.2416 17.5 20.325C17.1167 20.5583 16.7127 20.729 16.288 20.837C15.8627 20.9456 15.4333 21 15 21C14.5667 21 14.1377 20.9456 13.713 20.837C13.2877 20.729 12.8833 20.5583 12.5 20.325C12.3667 20.2416 12.2043 20.2 12.013 20.2C11.821 20.2 11.65 20.2416 11.5 20.325C11.1167 20.5583 10.7127 20.729 10.288 20.837C9.86267 20.9456 9.43333 21 9 21C8.56667 21 8.13767 20.9456 7.713 20.837C7.28767 20.729 6.88333 20.5583 6.5 20.325C6.35 20.2416 6.18333 20.2 6 20.2C5.81667 20.2 5.65 20.2416 5.5 20.325C5.11667 20.5583 4.71267 20.729 4.288 20.837C3.86267 20.9456 3.43333 21 3 21C2.71667 21 2.47933 21.096 2.288 21.288C2.096 21.4793 2 21.7166 2 22C2 22.2833 2.096 22.5206 2.288 22.712C2.47933 22.9039 2.71667 23 3 23Z" fill="#7C7C7C"/>
</svg>
